#N canvas 322 475 648 296 10;
#X obj 81 138 mono-4tap;
#X obj 81 96 adc~;
#X obj 81 253 dac~;
#X obj 136 20 netreceive 3000;
#X obj 136 54 route a b c d e f g h;
#X msg 333 77 5;
#X msg 381 78 3;
#X obj 341 42 bng 15 250 50 0 empty empty empty 17 7 0 10 -262144 -1
-1;
#X obj 387 44 bng 15 250 50 0 empty empty empty 17 7 0 10 -262144 -1
-1;
#X obj 366 115 bng 15 250 50 0 empty empty empty 17 7 0 10 -262144
-1 -1;
#X msg 364 144 \; first 0.5 \;;
#X connect 0 0 2 0;
#X connect 1 0 0 0;
#X connect 3 0 4 0;
#X connect 4 1 0 2;
#X connect 4 2 0 3;
#X connect 5 0 0 2;
#X connect 6 0 0 3;
#X connect 7 0 5 0;
#X connect 8 0 6 0;
#X connect 9 0 10 0;
