#N canvas 690 205 450 300 10;
#X obj 222 262 dac~;
#X obj 147 157 adc~;
#X msg 83 42 \; pd dsp 1;
#X obj 83 13 loadbang;
#X obj 219 81 netreceive 3000;
#X obj 171 112 print;
#X obj 219 115 route a b c d e f g h bpm hold;
#X obj 147 190 *~ 1;
#X obj 198 190 *~ 1;
#X obj 222 229 *~ 1;
#X obj 290 230 *~ 1;
#X obj 344 156 route on off;
#X msg 334 187 0;
#X msg 374 187 1;
#X text 326 230 kill switch;
#X text 99 191 volume;
#X connect 1 0 7 0;
#X connect 1 1 8 0;
#X connect 3 0 2 0;
#X connect 4 0 5 0;
#X connect 4 0 6 0;
#X connect 6 0 7 1;
#X connect 6 0 8 1;
#X connect 6 9 11 0;
#X connect 7 0 9 0;
#X connect 8 0 10 0;
#X connect 9 0 0 0;
#X connect 10 0 0 1;
#X connect 11 0 12 0;
#X connect 11 1 13 0;
#X connect 12 0 9 1;
#X connect 12 0 10 1;
#X connect 13 0 9 1;
#X connect 13 0 10 1;
