#N canvas 139 102 949 702 10;
#X obj 134 102 Guitar_specdelay~;
#X obj 134 489 *~ 10;
#X obj 742 65 loadbang;
#X msg 742 101 \; del-sin 1 \; fb-sin 1 \; gain-flat 1 \; lp-freq 220
\; slope -0.04 \; crossfade 0.5 \;;
#X obj 134 58 adc~;
#X obj 134 531 dac~;
#X obj 285 486 netreceive 3000;
#X obj 285 517 route a b c d e f g h;
#X obj 283 580 * 0.01;
#X msg 280 616 \; del-sin \$1 \;;
#X obj 338 578 * 0.01;
#X obj 399 579 * 0.01;
#X msg 377 619 \; fb-sin \$1 \;;
#X msg 460 619 \; gain-float \$1 \;;
#X connect 0 0 1 0;
#X connect 1 0 5 0;
#X connect 2 0 3 0;
#X connect 4 0 0 0;
#X connect 6 0 7 0;
#X connect 7 0 8 0;
#X connect 7 1 10 0;
#X connect 7 2 11 0;
#X connect 8 0 9 0;
#X connect 10 0 12 0;
#X connect 11 0 13 0;
