#N canvas 253 112 973 698 10;
#X obj 15 126 +~;
#X obj 272 196 hsl 200 25 0.5 30 1 1 empty empty vibrato-speed 20 12
0 14 -228856 -260097 -1 10600 0;
#X obj 205 329 hsl 200 25 0 1 0 0 empty empty output-level 20 12 0
14 -228856 -260097 -1 19900 1;
#X floatatom 216 366 5 0 0 0 - - -;
#X obj 181 367 *~ 0;
#X obj 15 154 delwrite~ \$0-delay 2000;
#X obj 181 299 vd~ \$0-delay 2000;
#X obj 184 108 hsl 450 25 0 40 0 1 empty empty vibrato-depth 20 12
0 14 -228856 -260097 -1 14000 0;
#X floatatom 280 230 5 0 0 0 - - -;
#X obj 181 273 *~;
#X floatatom 192 182 5 0 0 0 - - -;
#X obj 181 159 pow 2;
#X text 357 129 |;
#X text 323 129 |;
#X text 486 129 |;
#X text 502 129 |;
#N canvas 704 185 202 319 trapezoid 0;
#X obj 25 124 phasor~ 1;
#X obj 25 199 abs~;
#X obj 25 176 *~ 2;
#X obj 25 251 clip~ 0 0.5;
#X obj 25 152 -~ 0.5;
#X obj 25 19 inlet~;
#X obj 25 282 outlet~;
#X obj 25 225 -~ 0.25;
#X text 74 43 resync;
#X msg 76 98 0.625;
#X msg 76 68 0.125;
#X text 116 67 higher note;
#X text 116 98 lower note;
#X connect 0 0 4 0;
#X connect 1 0 7 0;
#X connect 2 0 1 0;
#X connect 3 0 6 0;
#X connect 4 0 2 0;
#X connect 5 0 0 0;
#X connect 7 0 3 0;
#X connect 9 0 0 1;
#X connect 10 0 0 1;
#X restore 269 256 pd trapezoid;
#N canvas 607 254 240 245 depth 0;
#X obj 28 163 line~;
#X msg 28 137 \$1 100;
#X floatatom 54 111 5 0 0 0 - - -;
#X obj 28 94 /;
#X obj 36 66 t b f;
#X obj 28 29 inlet;
#X obj 69 29 inlet;
#X obj 28 195 outlet~;
#X connect 0 0 7 0;
#X connect 1 0 0 0;
#X connect 3 0 2 0;
#X connect 3 0 1 0;
#X connect 4 0 3 0;
#X connect 4 1 3 1;
#X connect 5 0 3 0;
#X connect 6 0 4 0;
#X restore 181 221 pd depth;
#X obj 181 391 hip~ 40;
#X text 179 464 Step-vibrato: step-wise modulation of variable speed
delay. The modulator is a trapezoid \, therefore you get three different
tones in a sequence of four notes:;
#X text 180 522 original - lower tone - original - higher tone;
#X text 180 552 Around vibrato depth value ~ 500 \, the lower tone
has playback speed zero. With vibrato depth above 500 \, the speed
of the lower tone is negative so the sound is played backwards.;
#X text 180 661 Katja Vetter jan 2012;
#X text 181 613 A few sweet spots appear on the vibrato depth scale
\, where undertone and overtone harmonize with the original.;
#X obj 367 268 loadbang;
#X msg 328 297 1;
#X obj 181 79 * 0.31;
#X text 235 80 normalize from 0-128 to 0-40;
#X text 320 169 normalize from 0-128 to 0-10;
#X obj 269 168 * 0.07;
#X obj 15 91 adc~;
#X obj 181 434 dac~;
#X obj 681 8 netreceive 3000;
#X obj 681 35 route a b c d e f g h;
#X connect 0 0 5 0;
#X connect 1 0 8 0;
#X connect 1 0 16 0;
#X connect 1 0 17 1;
#X connect 2 0 3 0;
#X connect 2 0 4 1;
#X connect 4 0 18 0;
#X connect 6 0 4 0;
#X connect 7 0 11 0;
#X connect 9 0 6 0;
#X connect 11 0 10 0;
#X connect 11 0 17 0;
#X connect 16 0 9 1;
#X connect 17 0 9 0;
#X connect 18 0 31 0;
#X connect 18 0 31 1;
#X connect 24 0 25 0;
#X connect 25 0 2 0;
#X connect 26 0 7 0;
#X connect 29 0 1 0;
#X connect 30 0 0 0;
#X connect 30 1 0 1;
#X connect 32 0 33 0;
#X connect 33 0 26 0;
#X connect 33 1 29 0;
