#N canvas 456 486 450 300 10;
#X obj 138 151 dac~;
#X obj 325 133 dsp;
#X obj 328 100 1;
#X obj 327 22 loadbang;
#X obj 330 60 delay 100;
#X obj 139 80 adc~;
#X connect 2 0 1 0;
#X connect 3 0 4 0;
#X connect 4 0 2 0;
#X connect 5 0 0 0;
#X connect 5 0 0 1;
#X connect 5 1 0 1;
#X connect 5 1 0 0;
