#N canvas 676 60 950 785 10;
#X obj 134 102 Guitar_specdelay~;
#X obj 134 489 *~ 10;
#X obj 742 65 loadbang;
#X obj 62 58 adc~;
#X obj 64 615 dac~;
#X obj 385 505 netreceive 3000;
#X msg 341 635 \; del-sin \$1 \;;
#X msg 432 635 \; fb-sin \$1 \;;
#X msg 518 635 \; gain-flat \$1 \;;
#X msg 623 635 \; lp-freq \$1 \;;
#X msg 716 635 \; slope \$1 \;;
#X msg 234 635 \; crossfade \$1 \;;
#X obj 208 496 hsl 128 25 0 1 0 0 empty crossfade Dry_---_Wet_(crossfade)
-2 -8 0 10 -4034 -1 -1 6350 1;
#X obj 234 605 line 0 10;
#X msg 234 576 \$1 10;
#X obj 64 544 pi-crossfade~;
#X msg 742 101 \; del-sin 1 \; fb-sin 1 \; gain-flat 1 \; lp-freq 220
\; slope -0.04 \; crossfade 0.5 \; activate 0 \;;
#X obj 385 536 route a b c d e f g h bpm hold active;
#X msg 797 635 \; active \$1 \;;
#X obj 43 577 pi-active~;
#X connect 0 0 1 0;
#X connect 1 0 15 1;
#X connect 2 0 16 0;
#X connect 3 0 0 0;
#X connect 3 0 15 0;
#X connect 3 0 19 0;
#X connect 5 0 17 0;
#X connect 12 0 15 2;
#X connect 13 0 11 0;
#X connect 14 0 13 0;
#X connect 15 0 19 1;
#X connect 17 0 14 0;
#X connect 17 1 6 0;
#X connect 17 2 7 0;
#X connect 17 3 8 0;
#X connect 17 4 9 0;
#X connect 17 5 10 0;
#X connect 17 10 18 0;
#X connect 19 0 4 0;
