#N canvas 28 82 949 702 10;
#X obj 134 102 Guitar_specdelay~;
#X obj 134 489 *~ 10;
#X obj 742 65 loadbang;
#X msg 742 101 \; del-sin 1 \; fb-sin 1 \; gain-flat 1 \; lp-freq 220
\; slope -0.04 \; crossfade 0.5 \;;
#X obj 134 58 adc~;
#X obj 134 531 dac~;
#X obj 285 486 netreceive 3000;
#X obj 285 517 route a b c d e f g h;
#X msg 280 616 \; del-sin \$1 \;;
#X msg 371 616 \; fb-sin \$1 \;;
#X msg 457 616 \; gain-flat \$1 \;;
#X msg 562 616 \; lp-freq \$1 \;;
#X msg 655 616 \; slope \$1 \;;
#X msg 738 616 \; crossfade \$1 \;;
#X connect 0 0 1 0;
#X connect 1 0 5 0;
#X connect 2 0 3 0;
#X connect 4 0 0 0;
#X connect 6 0 7 0;
#X connect 7 0 8 0;
#X connect 7 1 9 0;
#X connect 7 2 10 0;
#X connect 7 3 11 0;
#X connect 7 4 12 0;
#X connect 7 5 13 0;
