#N canvas 516 22 700 321 10;
#X obj 77 201 print tcp;
#X obj 314 109 netsend;
#X msg 312 47 connect localhost 3001;
#X msg 312 159 empty;
#X msg 475 117 disconnect;
#X obj 146 111 netreceive 3000;
#X obj 217 161 loadbang;
#X obj 221 222 osc~ 440;
#X obj 224 292 dac~;
#X obj 160 258 *~ 0;
#X msg 481 86 send 0;
#X msg 550 79 send 0.5;
#X msg 355 82 send 1;
#X msg 221 191 880;
#X connect 1 0 3 0;
#X connect 2 0 1 0;
#X connect 4 0 1 0;
#X connect 5 0 0 0;
#X connect 5 0 9 1;
#X connect 6 0 13 0;
#X connect 7 0 9 0;
#X connect 9 0 8 0;
#X connect 10 0 1 0;
#X connect 11 0 1 0;
#X connect 12 0 1 0;
#X connect 13 0 7 0;
