#N canvas 660 31 700 321 10;
#X obj 146 111 netreceive 3000;
#X obj 147 144 print tcp;
#X obj 314 109 netsend;
#X msg 312 47 connect localhost 3001;
#X msg 312 159 empty;
#X msg 355 82 send foo foo;
#X msg 481 86 send;
#X msg 475 117 disconnect;
#X msg 550 79 send boo;
#X connect 0 0 1 0;
#X connect 2 0 4 0;
#X connect 3 0 2 0;
#X connect 5 0 2 0;
#X connect 6 0 2 0;
#X connect 7 0 2 0;
#X connect 8 0 2 0;
