#N canvas 322 475 648 296 10;
#X obj 81 138 mono-4tap;
#X obj 81 96 adc~;
#X obj 81 253 dac~;
#X obj 136 20 netreceive 3000;
#X obj 136 54 route a b c d e f g h;
#X connect 0 0 2 0;
#X connect 1 0 0 0;
#X connect 3 0 4 0;
#X connect 4 0 0 1;
#X connect 4 1 0 2;
#X connect 4 2 0 3;
