#N canvas 522 38 933 541 10;
#X obj 76 169 print tcp;
#X obj 418 217 netsend;
#X msg 371 111 connect localhost 3001;
#X msg 537 111 disconnect;
#X obj 146 111 netreceive 3000;
#X obj 209 300 loadbang;
#X obj 213 361 osc~ 440;
#X obj 216 431 dac~;
#X obj 152 397 *~ 0;
#X msg 629 161 send 0;
#X msg 687 164 send 0.5;
#X msg 565 159 send 1;
#X msg 213 330 880;
#X obj 798 138 dsp;
#X obj 801 105 1;
#X obj 800 27 loadbang;
#X obj 803 65 delay 100;
#X obj 426 59 t b b;
#X msg 303 146 unknown;
#X msg 312 181 send \$1;
#X obj 418 263 print sent;
#X msg 137 259 volume \$1;
#X obj 124 299 print;
#X msg 54 259 init;
#X obj 56 300 print;
#X obj 170 169 route init volume;
#X connect 1 0 20 0;
#X connect 2 0 1 0;
#X connect 3 0 1 0;
#X connect 4 0 0 0;
#X connect 4 0 25 0;
#X connect 5 0 12 0;
#X connect 6 0 8 0;
#X connect 8 0 7 0;
#X connect 9 0 1 0;
#X connect 10 0 1 0;
#X connect 11 0 1 0;
#X connect 12 0 6 0;
#X connect 14 0 13 0;
#X connect 15 0 16 0;
#X connect 16 0 14 0;
#X connect 17 0 2 0;
#X connect 17 1 3 0;
#X connect 18 0 19 0;
#X connect 19 0 1 0;
#X connect 21 0 22 0;
#X connect 23 0 24 0;
#X connect 25 0 17 0;
#X connect 25 0 23 0;
#X connect 25 1 8 1;
#X connect 25 1 21 0;
#X connect 25 2 18 0;
