#N canvas 187 532 450 300 10;
#X obj 115 46 adc~;
#X obj 116 97 sigmund~;
#X obj 105 215 osc~;
#X obj 108 129 mtof;
#X obj 110 284 dac~;
#X obj 148 245 *~ 0.5;
#X obj 227 84 netreceive 3000;
#X obj 206 206 / 100;
#X obj 103 186 line 0 10;
#X msg 115 156 \$1 10;
#X msg 190 137 \$1 10;
#X obj 202 171 line 0 10;
#X connect 0 0 1 0;
#X connect 1 0 3 0;
#X connect 1 1 10 0;
#X connect 2 0 5 0;
#X connect 3 0 9 0;
#X connect 5 0 4 0;
#X connect 7 0 5 1;
#X connect 8 0 2 0;
#X connect 9 0 8 0;
#X connect 10 0 11 0;
#X connect 11 0 7 0;
