#N canvas 1162 351 498 337 10;
#X obj 87 77 netreceive 5000;
#X obj 98 125 route 0 1;
#X obj 100 168 \$1;
#X obj 140 168 \$1;
#X msg 122 196 \; pd-\$1.pd menuclose;
#X obj 192 126 print;
#X obj 328 89 loadbang;
#X obj 328 127 print loader is alive;
#X msg 56 233 \; pd open \$1.pd /home/pi/raspberry-stomp/pd;
#X connect 0 0 1 0;
#X connect 0 0 5 0;
#X connect 1 0 2 0;
#X connect 1 1 3 0;
#X connect 2 0 8 0;
#X connect 3 0 4 0;
#X connect 6 0 7 0;
