#N canvas 93 260 932 519 10;
#X obj 66 303 dac~;
#X obj 76 221 osc~ 440;
#X obj 272 15 notein;
#X obj 327 160 / 127;
#X obj 71 251 *~;
#X obj 276 60 stripnote;
#X obj 81 171 mtof;
#X msg 186 283 0;
#X obj 531 24 netreceive 3000;
#X obj 472 81 route a b c d e f g h bpm hold active;
#X obj 150 48 print midi note;
#X obj 244 234 * 1;
#X obj 100 68 bng 15 250 50 0 empty empty empty 17 7 0 10 -262144 -1
-1;
#X obj 8 174 print note;
#X obj 251 278 print volume;
#X obj 810 126 dsp;
#X obj 810 97 1;
#X obj 810 37 loadbang;
#X obj 810 68 delay 100;
#X text 162 121;
#X text 465 147 master (0..1) \; pitch-semitones (-36..36) \; pitch-finetune-pre
(-0.5..0.5) \; pitch-finetune-post (-3.5..3.5) \;;
#X obj 79 198 + 0;
#X obj 80 141 + 0;
#X obj 79 110 + 0;
#X connect 1 0 4 0;
#X connect 2 0 5 0;
#X connect 2 1 5 1;
#X connect 3 0 11 0;
#X connect 4 0 0 0;
#X connect 5 0 10 0;
#X connect 5 0 23 0;
#X connect 5 1 3 0;
#X connect 6 0 21 0;
#X connect 7 0 4 1;
#X connect 8 0 9 0;
#X connect 9 0 11 1;
#X connect 9 0 12 0;
#X connect 9 1 12 0;
#X connect 9 1 23 1;
#X connect 9 2 22 1;
#X connect 9 3 12 0;
#X connect 9 3 21 1;
#X connect 11 0 4 1;
#X connect 11 0 14 0;
#X connect 12 0 11 0;
#X connect 12 0 23 0;
#X connect 16 0 15 0;
#X connect 17 0 18 0;
#X connect 18 0 16 0;
#X connect 21 0 1 0;
#X connect 22 0 6 0;
#X connect 22 0 13 0;
#X connect 23 0 22 0;
