#N canvas 473 34 1171 525 10;
#X obj 366 454 dac~;
#X obj 424 329 osc~ 440;
#X obj 562 24 notein;
#X obj 617 169 / 127;
#X obj 423 369 *~;
#X obj 566 69 stripnote;
#X obj 371 180 mtof;
#X msg 465 382 0;
#X obj 821 33 netreceive 3000;
#X obj 759 69 route a b c d e f g h bpm hold active;
#X obj 440 57 print midi note;
#X obj 500 332 * 1;
#X obj 795 226 bng 15 250 50 0 empty empty empty 17 7 0 10 -262144
-1 -1;
#X obj 298 183 print note;
#X obj 1095 390 dsp;
#X obj 1095 361 1;
#X obj 1095 301 loadbang;
#X obj 1095 332 delay 100;
#X obj 369 207 + 0;
#X obj 370 150 + 0;
#X obj 369 119 + 0;
#X obj 620 326 phasor~ 440;
#X obj 707 328 * 1;
#X obj 619 362 *~;
#X obj 895 178 * 12;
#X text 452 130 comment;
#X obj 992 177 + 1;
#X obj 992 199 mod 7;
#X obj 947 211 - 3;
#X obj 947 125 route 1 0;
#X text 1017 124 select octave with foot;
#X obj 947 177 f 3;
#X obj 301 83 60;
#X obj 295 43 bng 15 250 50 0 empty empty empty 17 7 0 10 -262144 -1
-1;
#X obj 333 84 0.8;
#X obj 235 398 *~;
#X obj 311 331 * 1;
#X obj 212 329 triangl~ 440;
#X msg 302 379 0;
#X msg 653 374 0;
#X obj 54 334 square~ 440;
#X obj 54 396 *~;
#X msg 121 377 0;
#X obj 143 334 * 1;
#X text 750 411 mix triangle (0..1) \; mix saw (0..1) \; mix square
(0..1) \; pitch-octave (-3..3) \; pitch-semitones (-7..7) \; pitch-finetune-post
(-3.5..3.5) \;;
#X connect 1 0 4 0;
#X connect 2 0 5 0;
#X connect 2 1 5 1;
#X connect 3 0 11 0;
#X connect 3 0 22 0;
#X connect 3 0 36 0;
#X connect 4 0 0 0;
#X connect 5 0 10 0;
#X connect 5 0 20 0;
#X connect 5 1 3 0;
#X connect 6 0 18 0;
#X connect 7 0 4 1;
#X connect 8 0 9 0;
#X connect 9 0 12 0;
#X connect 9 0 36 1;
#X connect 9 1 12 0;
#X connect 9 1 22 1;
#X connect 9 2 12 0;
#X connect 9 2 43 1;
#X connect 9 3 12 0;
#X connect 9 3 24 0;
#X connect 9 4 12 0;
#X connect 9 4 19 1;
#X connect 9 5 12 0;
#X connect 9 5 18 1;
#X connect 9 9 29 0;
#X connect 11 0 4 1;
#X connect 12 0 11 0;
#X connect 12 0 20 0;
#X connect 12 0 22 0;
#X connect 12 0 36 0;
#X connect 12 0 43 0;
#X connect 15 0 14 0;
#X connect 16 0 17 0;
#X connect 17 0 15 0;
#X connect 18 0 1 0;
#X connect 18 0 21 0;
#X connect 18 0 37 0;
#X connect 18 0 40 0;
#X connect 19 0 6 0;
#X connect 19 0 13 0;
#X connect 20 0 19 0;
#X connect 21 0 23 0;
#X connect 22 0 23 1;
#X connect 23 0 0 0;
#X connect 24 0 20 1;
#X connect 26 0 27 0;
#X connect 27 0 31 1;
#X connect 28 0 12 0;
#X connect 28 0 24 0;
#X connect 29 0 31 0;
#X connect 31 0 26 0;
#X connect 31 0 28 0;
#X connect 32 0 20 0;
#X connect 33 0 32 0;
#X connect 33 0 34 0;
#X connect 34 0 43 0;
#X connect 35 0 0 0;
#X connect 36 0 35 1;
#X connect 37 0 35 0;
#X connect 38 0 35 1;
#X connect 39 0 23 1;
#X connect 40 0 41 0;
#X connect 41 0 0 0;
#X connect 42 0 41 1;
#X connect 43 0 41 1;
