#N canvas 44 257 932 519 10;
#X obj 66 303 dac~;
#X obj 75 211 osc~ 440;
#X obj 272 15 notein;
#X obj 327 160 / 127;
#X obj 71 251 *~;
#X obj 276 60 stripnote;
#X obj 81 171 mtof;
#X msg 186 283 0;
#X obj 518 77 netreceive 3000;
#X obj 459 134 route a b c d e f g h bpm hold active;
#X obj 150 48 print midi note;
#X obj 161 109 hsl 128 15 -36 36 0 0 pitch-semitones pitch-semitones
empty -2 -8 0 10 -262144 -1 -1 6350 1;
#X obj 161 139 hsl 128 15 -0.5 0.5 0 0 pitch-finetune pitch-finetune
empty -2 -8 0 10 -262144 -1 -1 6350 1;
#X text 162 121 pitch-semitones;
#X text 157 151 pitch-finetune;
#X obj 79 110 +;
#X obj 80 141 +;
#X obj 292 332 loadbang;
#X obj 266 332 bng 15 250 50 0 empty empty empty 17 7 0 10 -262144
-1 -1;
#X msg 292 365 \; pitch-semitones 0 \; pitch-finetune 0 \; master 0.5
\;;
#X obj 288 220 hsl 128 15 0 1 0 0 master master empty -2 -8 0 10 -262144
-1 -1 6050 1;
#X text 308 234 master;
#X obj 244 234 * 1;
#X obj 128 172 bng 15 250 50 0 empty empty empty 17 7 0 10 -262144
-1 -1;
#X obj 8 174 print note;
#X obj 251 278 print volume;
#X msg 459 237 \; master \$1 \;;
#X msg 475 190 \; pitch-semitones \$1 \;;
#X msg 639 183 \; pitch-finetune \$1 \;;
#X connect 1 0 4 0;
#X connect 2 0 5 0;
#X connect 2 1 5 1;
#X connect 3 0 22 0;
#X connect 4 0 0 0;
#X connect 5 0 15 0;
#X connect 5 0 10 0;
#X connect 5 1 3 0;
#X connect 6 0 1 0;
#X connect 7 0 4 1;
#X connect 8 0 9 0;
#X connect 9 0 26 0;
#X connect 9 1 27 0;
#X connect 9 2 28 0;
#X connect 11 0 15 1;
#X connect 11 0 23 0;
#X connect 12 0 16 1;
#X connect 12 0 23 0;
#X connect 15 0 16 0;
#X connect 16 0 6 0;
#X connect 16 0 24 0;
#X connect 17 0 19 0;
#X connect 18 0 19 0;
#X connect 20 0 22 1;
#X connect 20 0 23 0;
#X connect 22 0 4 1;
#X connect 22 0 25 0;
#X connect 23 0 15 0;
#X connect 23 0 22 0;
