#N canvas 264 189 932 519 10;
#X obj 114 452 dac~;
#X obj 172 327 osc~ 440;
#X obj 310 22 notein;
#X obj 365 167 / 127;
#X obj 171 367 *~;
#X obj 314 67 stripnote;
#X obj 119 178 mtof;
#X msg 234 432 0;
#X obj 569 31 netreceive 3000;
#X obj 507 67 route a b c d e f g h bpm hold active;
#X obj 188 55 print midi note;
#X obj 248 330 * 1;
#X obj 543 224 bng 15 250 50 0 empty empty empty 17 7 0 10 -262144
-1 -1;
#X obj 46 181 print note;
#X obj 843 388 dsp;
#X obj 843 359 1;
#X obj 843 299 loadbang;
#X obj 843 330 delay 100;
#X obj 117 205 + 0;
#X obj 118 148 + 0;
#X obj 117 117 + 0;
#X obj 249 366 print sine;
#X obj 368 324 phasor~ 440;
#X obj 455 326 * 1;
#X obj 367 360 *~;
#X obj 455 361 print saw;
#X text 498 409 mix sine (0..1) \; mix saw (0..1) \; mix square (0..1)
(not yet implemented) \; pitch-semitones (-36..36) \; pitch-finetune-pre
(-0.5..0.5) \; pitch-finetune-post (-3.5..3.5) \;;
#X obj 643 176 * 12;
#X text 200 128;
#X obj 740 175 + 1;
#X obj 740 197 mod 7;
#X obj 695 209 - 3;
#X obj 695 123 route 1 0;
#X text 765 122 select octave with foot;
#X obj 695 175 f 3;
#X connect 1 0 4 0;
#X connect 2 0 5 0;
#X connect 2 1 5 1;
#X connect 3 0 11 0;
#X connect 3 0 23 0;
#X connect 4 0 0 0;
#X connect 5 0 10 0;
#X connect 5 0 20 0;
#X connect 5 1 3 0;
#X connect 6 0 18 0;
#X connect 7 0 4 1;
#X connect 8 0 9 0;
#X connect 9 0 11 1;
#X connect 9 0 12 0;
#X connect 9 1 12 0;
#X connect 9 1 23 1;
#X connect 9 2 12 0;
#X connect 9 3 12 0;
#X connect 9 3 27 0;
#X connect 9 4 12 0;
#X connect 9 4 19 1;
#X connect 9 5 12 0;
#X connect 9 5 18 1;
#X connect 9 9 32 0;
#X connect 11 0 4 1;
#X connect 11 0 21 0;
#X connect 12 0 11 0;
#X connect 12 0 20 0;
#X connect 15 0 14 0;
#X connect 16 0 17 0;
#X connect 17 0 15 0;
#X connect 18 0 1 0;
#X connect 18 0 22 0;
#X connect 19 0 6 0;
#X connect 19 0 13 0;
#X connect 20 0 19 0;
#X connect 22 0 24 0;
#X connect 23 0 24 1;
#X connect 23 0 25 0;
#X connect 24 0 0 0;
#X connect 27 0 20 1;
#X connect 29 0 30 0;
#X connect 30 0 34 1;
#X connect 31 0 12 0;
#X connect 31 0 27 0;
#X connect 32 0 34 0;
#X connect 34 0 29 0;
#X connect 34 0 31 0;
