#N canvas 623 194 932 519 10;
#X obj 114 452 dac~;
#X obj 172 327 osc~ 440;
#X obj 310 22 notein;
#X obj 365 167 / 127;
#X obj 171 367 *~;
#X obj 314 67 stripnote;
#X obj 119 178 mtof;
#X msg 234 432 0;
#X obj 569 31 netreceive 3000;
#X obj 507 67 route a b c d e f g h bpm hold active;
#X obj 188 55 print midi note;
#X obj 248 330 * 1;
#X obj 543 224 bng 15 250 50 0 empty empty empty 17 7 0 10 -262144
-1 -1;
#X obj 46 181 print note;
#X obj 843 388 dsp;
#X obj 843 359 1;
#X obj 843 299 loadbang;
#X obj 843 330 delay 100;
#X text 200 128 comment;
#X obj 117 205 + 0;
#X obj 118 148 + 0;
#X obj 117 117 + 0;
#X obj 249 366 print sine;
#X obj 368 324 phasor~ 440;
#X obj 455 326 * 1;
#X obj 367 360 *~;
#X obj 455 361 print saw;
#X text 498 409 mix sine (0..1) \; mix saw (0..1) \; mix square (0..1)
(not yet implemented) \; pitch-semitones (-36..36) \; pitch-finetune-pre
(-0.5..0.5) \; pitch-finetune-post (-3.5..3.5) \;;
#X obj 303 134 * 12;
#X connect 1 0 4 0;
#X connect 2 0 5 0;
#X connect 2 1 5 1;
#X connect 3 0 11 0;
#X connect 3 0 24 0;
#X connect 4 0 0 0;
#X connect 5 0 10 0;
#X connect 5 0 21 0;
#X connect 5 1 3 0;
#X connect 6 0 19 0;
#X connect 7 0 4 1;
#X connect 8 0 9 0;
#X connect 9 0 11 1;
#X connect 9 0 12 0;
#X connect 9 1 12 0;
#X connect 9 1 24 1;
#X connect 9 2 12 0;
#X connect 9 3 12 0;
#X connect 9 3 28 0;
#X connect 9 4 12 0;
#X connect 9 4 20 1;
#X connect 9 5 12 0;
#X connect 9 5 19 1;
#X connect 11 0 4 1;
#X connect 11 0 22 0;
#X connect 12 0 11 0;
#X connect 12 0 21 0;
#X connect 15 0 14 0;
#X connect 16 0 17 0;
#X connect 17 0 15 0;
#X connect 19 0 1 0;
#X connect 19 0 23 0;
#X connect 20 0 6 0;
#X connect 20 0 13 0;
#X connect 21 0 20 0;
#X connect 23 0 25 0;
#X connect 24 0 25 1;
#X connect 24 0 26 0;
#X connect 25 0 0 0;
#X connect 28 0 21 1;
