#N canvas 244 438 591 364 10;
#X obj 105 236 dac~;
#X obj 114 144 osc~ 440;
#X obj 284 23 notein;
#X obj 254 172 / 127;
#X obj 110 184 *~;
#X obj 276 60 stripnote;
#X obj 145 105 mtof;
#X msg 124 38 60.2;
#X msg 64 72 60;
#X msg 182 43 61;
#X msg 225 216 0;
#X obj 404 77 netreceive 3000;
#X obj 345 134 route a b c d e f g h bpm hold active;
#X connect 1 0 4 0;
#X connect 2 0 5 0;
#X connect 2 1 5 1;
#X connect 3 0 4 1;
#X connect 4 0 0 0;
#X connect 5 0 6 0;
#X connect 5 1 3 0;
#X connect 6 0 1 0;
#X connect 7 0 6 0;
#X connect 8 0 6 0;
#X connect 9 0 6 0;
#X connect 10 0 4 1;
#X connect 11 0 12 0;
