#N canvas 425 278 450 300 10;
#X obj 143 91 osc~ 440;
#X obj 138 151 dac~;
#X obj 325 133 dsp;
#X obj 328 100 1;
#X obj 327 22 loadbang;
#X obj 330 60 delay 100;
#X connect 0 0 1 0;
#X connect 3 0 2 0;
#X connect 4 0 5 0;
#X connect 5 0 3 0;
