#N canvas 22 481 590 245 10;
#X obj 76 61 inlet~;
#X obj 148 61 inlet~;
#X obj 210 28 tgl 15 0 empty active empty 17 7 0 10 -262144 -1 -1 0
1;
#X obj 114 177 outlet~;
#X msg 225 62 1 \$1;
#X obj 224 86 -;
#X obj 115 123 *~ 1;
#X obj 167 125 *~ 0;
#X text 195 162 listen to symbol active \; when inactive \, it will
let the left inlet through \; when active \, it will let the right
inlet through \;;
#X connect 0 0 6 0;
#X connect 1 0 7 0;
#X connect 2 0 4 0;
#X connect 2 0 7 1;
#X connect 4 0 5 0;
#X connect 5 0 6 1;
#X connect 6 0 3 0;
#X connect 7 0 3 0;
