#N canvas 400 223 632 504 10;
#X obj 43 58 inlet~;
#X obj 254 68 inlet;
#X obj 43 342 outlet~;
#X obj 329 64 loadbang;
#X msg 329 84 0.5;
#X obj 59 204 expr cos($f1 * 3.14159 / 2);
#X obj 254 204 expr sin($f1 * 3.14159 / 2);
#X obj 254 144 clip 0 1;
#N canvas 0 22 450 300 pan_core 0;
#X obj 21 106 inlet~;
#X obj 226 126 inlet;
#X obj 80 453 *~;
#X obj 144 497 outlet~;
#X obj 210 452 *~;
#X obj 226 428 line~;
#X obj 96 428 line~;
#X obj 96 127 inlet;
#X obj 179 104 inlet~;
#X text 244 544 comment;
#X obj 96 389 pack f 5;
#X obj 226 389 pack f 5;
#X text 223 540 Hans-Christoph Steiner \, 2004;
#X text 223 526 Adapted from [pan_core~];
#X connect 0 0 2 0;
#X connect 1 0 11 0;
#X connect 2 0 3 0;
#X connect 4 0 3 0;
#X connect 5 0 4 1;
#X connect 6 0 2 1;
#X connect 7 0 10 0;
#X connect 8 0 4 0;
#X connect 10 0 6 0;
#X connect 11 0 5 0;
#X restore 49 276 pd pan_core;
#X text 266 447 Adapted from [equal_power_pan~] \, Hans-Christoph Steiner
\, 2004;
#X text 421 459 comment;
#X obj 138 56 inlet~;
#X connect 0 0 8 0;
#X connect 1 0 7 0;
#X connect 3 0 4 0;
#X connect 4 0 7 0;
#X connect 5 0 8 1;
#X connect 6 0 8 3;
#X connect 7 0 5 0;
#X connect 7 0 6 0;
#X connect 8 0 2 0;
#X connect 11 0 8 2;
