#N canvas 687 65 933 541 10;
#X obj 74 105 print tcp;
#X obj 725 363 netsend;
#X msg 628 188 connect localhost 3001;
#X msg 781 186 disconnect;
#X obj 144 47 netreceive 3000;
#X obj 216 431 dac~;
#X obj 284 384 *~ 0;
#X obj 798 138 dsp;
#X obj 801 105 1;
#X obj 800 27 loadbang;
#X obj 803 65 delay 100;
#X obj 685 160 t b b;
#X obj 725 409 print sent;
#X msg 137 259 volume \$1;
#X obj 124 299 print;
#X msg 54 259 init;
#X obj 56 300 print;
#X obj 217 295 adc~;
#X obj 217 354 vibr~;
#X obj 169 80 route init volume option_a option_b;
#X obj 376 104 print unknown;
#X connect 1 0 12 0;
#X connect 2 0 1 0;
#X connect 3 0 1 0;
#X connect 4 0 0 0;
#X connect 4 0 19 0;
#X connect 6 0 5 0;
#X connect 8 0 7 0;
#X connect 9 0 10 0;
#X connect 10 0 8 0;
#X connect 11 0 2 0;
#X connect 11 1 3 0;
#X connect 13 0 14 0;
#X connect 15 0 16 0;
#X connect 17 0 18 0;
#X connect 18 0 6 0;
#X connect 19 0 11 0;
#X connect 19 0 15 0;
#X connect 19 1 6 1;
#X connect 19 1 13 0;
#X connect 19 2 18 1;
#X connect 19 3 18 2;
#X connect 19 4 20 0;
