#N canvas 486 57 1151 518 10;
#X obj 91 80 print tcp;
#X obj 720 431 netsend;
#X msg 629 215 connect localhost 3001;
#X msg 782 213 disconnect;
#X obj 130 23 netreceive 3000;
#X obj 298 471 dac~;
#X obj 800 106 dsp;
#X obj 800 80 1;
#X obj 800 27 loadbang;
#X obj 800 54 delay 100;
#X obj 720 477 print sent;
#X msg 137 259 volume \$1;
#X obj 124 299 print;
#X msg 54 259 init;
#X obj 56 300 print;
#X obj 327 328 adc~;
#X obj 493 80 print unknown;
#X obj 279 429 *~ 1;
#X obj 169 80 route init volume a b c d e f g h disconnect;
#X obj 781 188 bng 15 250 50 0 empty empty empty 17 7 0 10 -262144
-1 -1;
#X obj 840 106 print rock and roll;
#X obj 766 27 bng 15 250 50 0 empty empty empty 17 7 0 10 -262144 -1
-1;
#X text 434 222 2: send an 'init' on port 3000 \; it will connect back
at port 3001;
#X obj 374 370 step-vibrato~;
#X obj 332 429 *~ 1;
#X msg 532 395 send from_algorithm \$1;
#X text 744 130 1: start pd and wait for 'rock and roll' in stdout
;
#X text 803 477;
#X connect 1 0 10 0;
#X connect 2 0 1 0;
#X connect 3 0 1 0;
#X connect 4 0 0 0;
#X connect 4 0 18 0;
#X connect 7 0 6 0;
#X connect 7 0 20 0;
#X connect 8 0 9 0;
#X connect 9 0 7 0;
#X connect 11 0 12 0;
#X connect 13 0 14 0;
#X connect 15 0 23 0;
#X connect 15 1 23 1;
#X connect 17 0 5 0;
#X connect 18 0 13 0;
#X connect 18 0 2 0;
#X connect 18 1 11 0;
#X connect 18 1 17 1;
#X connect 18 1 24 1;
#X connect 18 2 23 2;
#X connect 18 3 23 3;
#X connect 18 4 23 4;
#X connect 18 5 23 5;
#X connect 18 6 23 6;
#X connect 18 7 23 7;
#X connect 18 8 23 8;
#X connect 18 9 23 9;
#X connect 18 10 19 0;
#X connect 18 11 16 0;
#X connect 19 0 3 0;
#X connect 21 0 9 0;
#X connect 23 0 17 0;
#X connect 23 1 24 0;
#X connect 23 2 25 0;
#X connect 24 0 5 1;
#X connect 25 0 1 0;
