#N canvas 168 184 933 541 10;
#X obj 74 105 print tcp;
#X obj 725 363 netsend;
#X msg 628 188 connect localhost 3001;
#X msg 781 186 disconnect;
#X obj 144 47 netreceive 3000;
#X obj 216 431 dac~;
#X obj 800 106 dsp;
#X obj 800 80 1;
#X obj 800 27 loadbang;
#X obj 800 54 delay 100;
#X obj 685 160 t b b;
#X obj 725 409 print sent;
#X msg 137 259 volume \$1;
#X obj 124 299 print;
#X msg 54 259 init;
#X obj 56 300 print;
#X obj 217 295 adc~;
#X obj 398 97 print unknown;
#X obj 284 384 *~ 1;
#X obj 169 80 route init volume a b c d e f g h;
#X obj 217 354 step-vibrato~;
#N canvas 724 73 917 633 spectral~ 1;
#X obj 124 92 Guitar_specdelay~;
#X obj 124 479 *~ 10;
#X obj 124 533 outlet~;
#X obj 124 42 inlet~;
#X obj 196 23 inlet;
#X obj 257 22 inlet;
#X obj 314 23 inlet;
#X obj 363 24 inlet;
#X obj 407 24 inlet;
#X obj 448 24 inlet;
#X obj 497 24 inlet;
#X obj 547 29 inlet;
#X obj 732 55 loadbang;
#X msg 732 91 \; del-sin 1 \; fb-sin 1 \; gain-flat 1 \; lp-freq 220
\; slope -0.04 \; crossfade 0.5 \;;
#X connect 0 0 1 0;
#X connect 1 0 2 0;
#X connect 3 0 0 0;
#X connect 12 0 13 0;
#X restore 423 348 pd spectral~;
#N canvas 852 126 450 300 step-vibrato~ 0;
#X restore 423 397 pd step-vibrato~;
#X obj 430 296 specdelay~;
#X connect 1 0 11 0;
#X connect 2 0 1 0;
#X connect 3 0 1 0;
#X connect 4 0 0 0;
#X connect 4 0 19 0;
#X connect 7 0 6 0;
#X connect 8 0 9 0;
#X connect 9 0 7 0;
#X connect 10 0 2 0;
#X connect 10 1 3 0;
#X connect 12 0 13 0;
#X connect 14 0 15 0;
#X connect 16 0 20 0;
#X connect 18 0 5 0;
#X connect 19 0 10 0;
#X connect 19 0 14 0;
#X connect 19 1 12 0;
#X connect 19 1 18 1;
#X connect 19 2 20 1;
#X connect 19 3 20 2;
#X connect 19 4 20 3;
#X connect 19 5 20 4;
#X connect 19 6 20 5;
#X connect 19 7 20 6;
#X connect 19 8 20 7;
#X connect 19 9 20 8;
#X connect 19 10 17 0;
#X connect 20 0 18 0;
