#N canvas 591 52 933 541 10;
#X obj 74 105 print tcp;
#X obj 725 363 netsend;
#X msg 628 188 connect localhost 3001;
#X msg 781 186 disconnect;
#X obj 144 47 netreceive 3000;
#X obj 216 431 dac~;
#X obj 800 106 dsp;
#X obj 800 80 1;
#X obj 800 27 loadbang;
#X obj 800 54 delay 100;
#X obj 685 160 t b b;
#X obj 725 409 print sent;
#X msg 137 259 volume \$1;
#X obj 124 299 print;
#X msg 54 259 init;
#X obj 56 300 print;
#X obj 217 295 adc~;
#X obj 398 97 print unknown;
#X obj 284 384 *~ 1;
#X obj 169 80 route init volume a b c d e f g h;
#X obj 217 354 step-vibrato~;
#X connect 1 0 11 0;
#X connect 2 0 1 0;
#X connect 3 0 1 0;
#X connect 4 0 0 0;
#X connect 4 0 19 0;
#X connect 7 0 6 0;
#X connect 8 0 9 0;
#X connect 9 0 7 0;
#X connect 10 0 2 0;
#X connect 10 1 3 0;
#X connect 12 0 13 0;
#X connect 14 0 15 0;
#X connect 16 0 20 0;
#X connect 16 1 20 1;
#X connect 18 0 5 0;
#X connect 19 0 10 0;
#X connect 19 0 14 0;
#X connect 19 1 12 0;
#X connect 19 1 18 1;
#X connect 19 2 20 2;
#X connect 19 3 20 3;
#X connect 19 4 20 4;
#X connect 19 5 20 5;
#X connect 19 6 20 6;
#X connect 19 7 20 7;
#X connect 19 8 20 8;
#X connect 19 9 20 9;
#X connect 19 10 17 0;
#X connect 20 0 18 0;
