#N canvas 165 88 949 702 10;
#X obj 134 102 Guitar_specdelay~;
#X obj 134 489 *~ 10;
#X obj 134 543 outlet~;
#X obj 134 52 inlet~;
#X obj 232 52 inlet;
#X obj 274 52 inlet;
#X obj 316 52 inlet;
#X obj 359 52 inlet;
#X obj 403 52 inlet;
#X obj 444 52 inlet;
#X obj 487 52 inlet;
#X obj 530 52 inlet;
#X obj 742 65 loadbang;
#X msg 742 101 \; del-sin 1 \; fb-sin 1 \; gain-flat 1 \; lp-freq 220
\; slope -0.04 \; crossfade 0.5 \;;
#X obj 183 52 inlet~;
#X obj 202 543 outlet~;
#X obj 274 542 outlet;
#X connect 0 0 1 0;
#X connect 1 0 2 0;
#X connect 3 0 0 0;
#X connect 12 0 13 0;
