#N canvas 35 366 496 491 10;
#X floatatom 70 98 5 0 0 0 - - -;
#X obj 120 142 * -1;
#X obj 86 190 phasor~;
#X obj 192 190 phasor~;
#X obj 133 248 +~;
#X obj 133 317 outlet~;
#X obj 66 43 inlet;
#X msg 287 114 0;
#X obj 133 285 -~ 1;
#X obj 263 191 + 0.5;
#X obj 303 43 inlet;
#X obj 174 42 inlet;
#X text 340 42 phase;
#X text 209 48 pulse width;
#X text 106 54 freq;
#X text 304 264 square wave;
#X msg 214 113 0.5;
#X obj 232 74 loadbang;
#X connect 0 0 2 0;
#X connect 0 0 1 0;
#X connect 1 0 3 0;
#X connect 2 0 4 0;
#X connect 3 0 4 1;
#X connect 4 0 8 0;
#X connect 6 0 0 0;
#X connect 7 0 2 1;
#X connect 8 0 5 0;
#X connect 9 0 8 1;
#X connect 10 0 7 0;
#X connect 11 0 16 0;
#X connect 16 0 9 0;
#X connect 16 0 3 1;
#X connect 17 0 7 0;
#X connect 17 0 16 0;
