#N canvas 526 72 954 610 10;
#X obj 1 290 delwrite~ delay_essai 1000;
#X obj 40 115 adc~;
#X obj 318 499 dac~;
#X obj 371 8 netreceive 3000;
#X obj 68 364 *~ 0;
#X obj 360 463 *~ 0;
#X obj 296 464 *~ 1;
#X obj 255 148 loadbang;
#X msg 272 187 200;
#X obj 286 226 delread~ delay_essai \$1;
#X obj 360 50 route a b c d e f g h bpm hold active;
#X obj 70 454 hsl 128 15 0 1 0 0 empty stutter-feedback empty -2 -8
0 10 -262144 -1 -1 0 1;
#X text 85 473 stutter feedback;
#X obj 159 393 hsl 128 15 0 1 0 0 empty bypass empty -2 -8 0 10 -262144
-1 -1 12700 1;
#X text 162 371 bypass;
#X obj 384 436 hsl 128 15 0 1 0 0 empty stutter empty -2 -8 0 10 -262144
-1 -1 0 1;
#X text 411 454 stutter;
#X obj 752 118 loadbang;
#X obj 590 161 route 1 0;
#X obj 500 210 bng 15 250 50 0 empty empty empty 17 7 0 10 -262144
-1 -1;
#X obj 553 405 line 0;
#X obj 612 397 line 0;
#X obj 665 397 line 0;
#X obj 667 217 bng 15 250 50 0 empty empty empty 17 7 0 10 -262144
-1 -1;
#X msg 633 327 0 500;
#X msg 686 325 0 500;
#X msg 738 331 1 500;
#X msg 478 311 1 0;
#X msg 524 312 0 10;
#X text 364 307 stutter on;
#X text 810 296 stutter off;
#X msg 437 346 \$1 10;
#X obj 43 245 *~;
#X obj 63 207 hsl 128 15 0 1 0 0 empty input-gain empty -2 -8 0 10
-262144 -1 -1 12700 1;
#X obj 667 273 t b b b b;
#X msg 785 334 1 500;
#X obj 722 399 line 0;
#X obj 617 448 pack f f f f;
#X obj 500 265 t b b b b;
#X text 116 187 input gain;
#X msg 640 508 \; stutter \$1 \; stutter-feedback \$2 \; bypass \$3
\; input-gain \$4 \;;
#X msg 565 314 \$1 0;
#X obj 435 268 vsl 15 64 0 1 0 0 empty stutter-volume-control stutter_volume
0 -9 0 10 -262144 -1 -1 2500 1;
#X obj 584 229 vsl 15 64 0 1 0 0 empty input-gain-control input_gain
0 -9 0 10 -262144 -1 -1 0 1;
#X obj 394 391 print;
#X msg 752 174 \; input-gain-control 0 \; stutter-volume-control 0.6
\;;
#X msg 353 127 \; stutter-volume-control \$1 \;;
#X msg 398 87 \; input-gain-control \$1 \;;
#X connect 1 0 6 0;
#X connect 1 0 32 0;
#X connect 3 0 10 0;
#X connect 4 0 0 0;
#X connect 5 0 2 0;
#X connect 6 0 2 0;
#X connect 7 0 8 0;
#X connect 8 0 9 0;
#X connect 9 0 4 0;
#X connect 9 0 5 0;
#X connect 10 0 9 0;
#X connect 10 1 46 0;
#X connect 10 2 47 0;
#X connect 10 9 18 0;
#X connect 10 10 18 0;
#X connect 11 0 4 1;
#X connect 13 0 6 0;
#X connect 15 0 5 1;
#X connect 17 0 34 0;
#X connect 17 0 45 0;
#X connect 18 0 38 0;
#X connect 18 1 34 0;
#X connect 19 0 38 0;
#X connect 20 0 37 0;
#X connect 21 0 37 1;
#X connect 22 0 37 2;
#X connect 23 0 34 0;
#X connect 24 0 20 0;
#X connect 25 0 21 0;
#X connect 26 0 22 0;
#X connect 27 0 21 0;
#X connect 28 0 22 0;
#X connect 31 0 20 0;
#X connect 31 0 44 0;
#X connect 32 0 0 0;
#X connect 33 0 32 1;
#X connect 34 0 24 0;
#X connect 34 1 25 0;
#X connect 34 2 26 0;
#X connect 34 3 35 0;
#X connect 35 0 36 0;
#X connect 36 0 37 3;
#X connect 37 0 40 0;
#X connect 38 0 42 0;
#X connect 38 1 27 0;
#X connect 38 2 28 0;
#X connect 38 3 43 0;
#X connect 41 0 36 0;
#X connect 42 0 31 0;
#X connect 43 0 41 0;
