#N canvas 653 140 851 428 10;
#X obj -23 168 delwrite~ delay_essai 1000;
#X obj 27 55 adc~;
#X obj 335 328 dac~;
#X obj 392 58 netreceive 3000;
#X obj 59 217 *~ 0;
#X msg 443 194 1;
#X msg 546 232 0;
#X obj 377 292 *~ 0;
#X obj 313 293 *~ 1;
#X msg 478 219 0;
#X msg 580 234 1;
#X obj 242 88 loadbang;
#X msg 235 112 200;
#X obj 273 166 delread~ delay_essai \$1;
#X obj 381 100 route a b c d e f g h bpm hold active;
#X obj 477 169 route on off 1 0;
#X connect 1 0 0 0;
#X connect 1 0 8 0;
#X connect 3 0 14 0;
#X connect 4 0 0 0;
#X connect 5 0 4 1;
#X connect 5 0 7 1;
#X connect 6 0 4 1;
#X connect 6 0 7 1;
#X connect 7 0 2 0;
#X connect 8 0 2 0;
#X connect 9 0 8 1;
#X connect 10 0 8 1;
#X connect 11 0 12 0;
#X connect 12 0 13 0;
#X connect 13 0 4 0;
#X connect 13 0 7 0;
#X connect 14 0 13 0;
#X connect 14 9 15 0;
#X connect 14 10 15 0;
#X connect 15 0 5 0;
#X connect 15 0 9 0;
#X connect 15 1 6 0;
#X connect 15 1 10 0;
#X connect 15 2 5 0;
#X connect 15 2 9 0;
#X connect 15 3 6 0;
#X connect 15 3 10 0;
