#N canvas 1107 362 537 421 10;
#X obj 214 119 * -1;
#X msg 161 131 0;
#X obj 95 161 phasor~;
#X obj 214 160 phasor~;
#X obj 95 187 *~ 2;
#X obj 95 214 -~ 1;
#X obj 214 186 *~ 2;
#X obj 214 214 -~ 1;
#X obj 95 242 clip~ 0 1;
#X obj 214 242 clip~ 0 1;
#X obj 154 276 +~;
#X obj 154 303 outlet~;
#X obj 60 56 inlet;
#X obj 160 56 inlet;
#X text 196 58 phase;
#X text 98 59 freq;
#X floatatom 60 93 5 0 0 0 - - -;
#X text 291 299 triangle wave;
#X connect 0 0 3 0;
#X connect 1 0 2 1;
#X connect 1 0 3 1;
#X connect 2 0 4 0;
#X connect 3 0 6 0;
#X connect 4 0 5 0;
#X connect 5 0 8 0;
#X connect 6 0 7 0;
#X connect 7 0 9 0;
#X connect 8 0 10 0;
#X connect 9 0 10 0;
#X connect 10 0 11 0;
#X connect 12 0 16 0;
#X connect 13 0 1 0;
#X connect 16 0 2 0;
#X connect 16 0 0 0;
