#N canvas 989 55 670 261 10;
#X obj -163 7 *~ 0.5;
#X obj -162 37 pitchshifter~;
#X msg -87 14 transpose \$1;
#X floatatom -87 -11 5 0 0 0 - - -;
#X obj -164 -19 adc~;
#X obj -164 152 dac~;
#X obj -163 64 *~ 1.5;
#X text -97 -25 Transpose;
#X obj 253 20 netreceive 3000;
#X obj 253 64 route a b c d e f g h;
#X obj -197 109 *~ 1;
#X obj -13 45 pitchshifter~;
#X msg 62 22 transpose \$1;
#X floatatom 62 -3 5 0 0 0 - - -;
#X obj -14 72 *~ 1.5;
#X text 52 -17 Transpose;
#X connect 0 0 1 0;
#X connect 1 0 6 0;
#X connect 2 0 1 1;
#X connect 3 0 2 0;
#X connect 4 0 0 0;
#X connect 4 0 10 0;
#X connect 4 1 0 0;
#X connect 6 0 5 0;
#X connect 6 0 5 1;
#X connect 8 0 9 0;
#X connect 9 0 10 1;
#X connect 9 1 3 0;
#X connect 9 2 6 1;
#X connect 9 3 13 0;
#X connect 9 4 14 1;
#X connect 10 0 5 0;
#X connect 10 0 5 1;
#X connect 11 0 14 0;
#X connect 12 0 11 1;
#X connect 13 0 12 0;
#X connect 14 0 5 0;
#X connect 14 0 5 1;
